<svg xmlns="http://www.w3.org/2000/svg" viewBox="0 0 500 500"><g id="freepik--Floor--inject-63"><path id="freepik--floor--inject-63" d="M77.67,445.19c-95.18-54.95-95.18-144,0-199s249.49-54.95,344.66,0,95.18,144,0,199S172.84,500.14,77.67,445.19Z" style="fill:#fafafa"></path></g><g id="freepik--Pictures--inject-63"><g id="freepik--Picture--inject-63"><g id="freepik--Frame--inject-63"><polygon points="142.67 155.1 144.44 156.16 180.76 135.19 178.99 134.13 142.67 155.1" style="fill:#fafafa"></polygon><polygon points="178.99 134.13 144.44 154.08 144.44 46.83 178.99 26.9 178.99 134.13" style="fill:#fff"></polygon><path d="M184.1,20.08l-43,24.82v117l43-24.82Zm-3.34,115.11-36.32,21V46.83l36.32-21Z" style="fill:#f0f0f0"></path><polygon points="180.76 135.19 178.99 134.13 178.99 26.9 180.76 25.86 180.76 135.19" style="fill:#e0e0e0"></polygon><polygon points="184.1 20.08 182.3 19.05 139.3 43.88 141.1 44.9 184.1 20.08" style="fill:#fafafa"></polygon><polygon points="139.3 43.88 141.1 44.9 141.1 161.94 139.3 160.91 139.3 43.88" style="fill:#e0e0e0"></polygon></g><g id="freepik--Land--inject-63"><polygon points="176.4 132.07 147.03 149.02 147.03 49.95 176.4 33 176.4 132.07" style="fill:#f0f0f0"></polygon></g><g id="freepik--land--inject-63"><polygon points="176.4 132.07 147.03 149.02 147.03 49.95 176.4 33 176.4 132.07" style="fill:#f0f0f0"></polygon></g><path d="M147,120.54a28,28,0,0,0,4.2,0,53.08,53.08,0,0,0,14.3-3.11c3.55-1.31,7.11-3,10.87-3.12v17.79l-4,2.29a13.34,13.34,0,0,0-5.45-3c-5.66-1.49-11.46,1.35-17.28,2a23.57,23.57,0,0,1-2.66.13Z" style="fill:#fafafa"></path><path d="M147,85.61c6.57-1.94,13.31-3.56,18-8.38,3.78-3.89,5.56-9.27,6.8-14.54s2.1-10.73,4.49-15.59a1,1,0,0,1,.08-.14V99.9c-.37.55-.74,1.1-1.13,1.63-4.32,5.85-10.67,10.73-17.93,11.11-3.41.17-6.93-.63-10.31-.61Z" style="fill:#fafafa"></path><path d="M147,66.07a20,20,0,0,0,6.51-18.21c-.09-.5-.21-1-.33-1.47l11.29-6.52c0,.74-.08,1.48-.1,2.22-.12,4.32,0,8.69-.92,12.89a25.38,25.38,0,0,1-12.87,16.64A24.35,24.35,0,0,1,147,73.11Z" style="fill:#fafafa"></path></g><g id="freepik--picture--inject-63"><g id="freepik--frame--inject-63"><polygon points="365.12 73.97 363.58 74.88 332.18 56.74 333.7 55.83 365.12 73.97" style="fill:#fafafa"></polygon><polygon points="333.7 55.83 363.58 73.08 363.58 41.79 333.7 24.55 333.7 55.83" style="fill:#fff"></polygon><path d="M329.29,58.41l37.18,21.47V40.12L329.29,18.65Zm2.88-34.76,31.41,18.14V74.88L332.17,56.74Z" style="fill:#f0f0f0"></path><polygon points="332.18 56.74 333.7 55.83 333.7 24.55 332.17 23.65 332.18 56.74" style="fill:#e0e0e0"></polygon><polygon points="329.29 18.65 330.84 17.76 368.03 39.23 366.47 40.12 329.29 18.65" style="fill:#fafafa"></polygon><polygon points="368.03 39.23 366.47 40.12 366.47 79.88 368.03 78.99 368.03 39.23" style="fill:#e0e0e0"></polygon></g><g id="freepik--land--inject-63"><polygon points="334.87 54.89 362.42 70.8 362.42 62.85 355.53 46.94 351.24 50.92 352.78 57.58 343.27 37.24 334.87 46.94 334.87 54.89" style="fill:#f0f0f0"></polygon><path d="M351.5,39.26a4.52,4.52,0,0,1,2,3.53c0,1.3-.92,1.83-2,1.18a4.49,4.49,0,0,1-2-3.53C349.46,39.14,350.37,38.61,351.5,39.26Z" style="fill:#f0f0f0"></path></g></g><g id="freepik--picture--inject-63"><g id="freepik--frame--inject-63"><polygon points="333.57 106.62 332.04 107.53 300.63 89.4 302.16 88.49 333.57 106.62" style="fill:#fafafa"></polygon><polygon points="302.16 88.49 332.04 105.73 332.04 74.44 302.16 57.21 302.16 88.49" style="fill:#fff"></polygon><path d="M297.74,91.07l37.19,21.47V72.78L297.74,51.31Zm2.89-34.76L332,74.45v33.09L300.63,89.4Z" style="fill:#f0f0f0"></path><polygon points="300.63 89.4 302.16 88.49 302.16 57.21 300.63 56.31 300.63 89.4" style="fill:#e0e0e0"></polygon><polygon points="297.74 51.31 299.3 50.42 336.49 71.89 334.93 72.78 297.74 51.31" style="fill:#fafafa"></polygon><polygon points="336.49 71.89 334.93 72.78 334.93 112.54 336.49 111.65 336.49 71.89" style="fill:#e0e0e0"></polygon></g><g id="freepik--land--inject-63"><polygon points="303.33 87.55 330.88 103.46 330.88 95.5 323.99 79.6 319.7 83.58 321.24 90.24 311.73 69.9 303.33 79.6 303.33 87.55" style="fill:#f0f0f0"></polygon><path d="M320,71.92a4.52,4.52,0,0,1,2,3.53c0,1.3-.92,1.83-2,1.18a4.49,4.49,0,0,1-2-3.53C317.92,71.8,318.83,71.27,320,71.92Z" style="fill:#f0f0f0"></path></g></g></g><g id="freepik--Windows--inject-63"><g id="freepik--Window--inject-63"><g id="freepik--window--inject-63"><g id="freepik--frame--inject-63"><polygon points="34.15 231.38 36.27 232.65 108.4 191 106.28 189.74 34.15 231.38" style="fill:#fafafa"></polygon><polygon points="106.28 189.74 36.27 230.15 36.27 68.86 106.28 28.46 106.28 189.74" style="fill:#fff"></polygon><path d="M112.41,20.28,32.27,66.55v173l80.14-46.27ZM108.4,191,36.27,232.65V68.86L108.4,27.22Z" style="fill:#f0f0f0"></path><polygon points="108.4 191 106.28 189.74 106.28 28.46 108.4 27.22 108.4 191" style="fill:#e0e0e0"></polygon><polygon points="36.27 174.04 36.27 176.53 108.4 134.88 106.28 133.61 36.27 174.04" style="fill:#fafafa"></polygon><polygon points="36.27 117.89 36.27 120.38 108.4 78.73 106.28 77.47 36.27 117.89" style="fill:#fafafa"></polygon><polygon points="112.41 20.29 110.25 19.05 30.11 65.32 32.27 66.55 112.41 20.29" style="fill:#fafafa"></polygon><polygon points="30.11 65.32 32.27 66.55 32.27 239.58 30.11 238.34 30.11 65.32" style="fill:#e0e0e0"></polygon><polygon points="67.12 51.05 69.28 49.81 69.28 213.6 67.12 212.37 67.12 51.05" style="fill:#e0e0e0"></polygon></g><polygon points="73.28 47.51 69.28 49.81 69.28 213.6 73.28 211.28 73.28 47.51" style="fill:#f0f0f0"></polygon><polygon points="112.41 76.42 112.41 81.04 32.27 127.3 32.27 122.69 112.41 76.42" style="fill:#f0f0f0"></polygon><polygon points="112.41 132.56 112.41 137.17 32.27 183.44 32.27 178.82 112.41 132.56" style="fill:#f0f0f0"></polygon><polygon points="69.28 101.32 67.12 100.08 36.27 117.89 36.27 120.38 69.28 101.32" style="fill:#fafafa"></polygon><polygon points="69.28 157.44 67.12 156.2 36.27 174.01 36.27 176.5 69.28 157.44" style="fill:#fafafa"></polygon></g></g><g id="freepik--window--inject-63"><path d="M469.9,87.58c0-24.5-16.14-53.68-36-65.17-10.54-6.09-20-6-26.61-.92-8.19,3.4-13.44,12.82-13.44,26.78V190.38L465.89,232l4-2.31Z" style="fill:#e6e6e6"></path><path d="M465.89,232V89.89c0-24.5-16.13-53.68-36-65.17s-36-.95-36,23.55V190.38Z" style="fill:#f5f5f5"></path><path d="M462,89.89V225.17L397.76,188.1V48.28c0-12.25,4.3-20.69,11.55-23.36a15,15,0,0,1,5.25-.9c4.1,0,8.58,1.38,13.32,4.12C446.67,39,462,66.68,462,89.89Z" style="fill:#e0e0e0"></path><polygon points="397.75 188.1 401.83 185.76 461.95 220.48 461.95 225.17 397.75 188.1" style="fill:#ebebeb"></polygon><path d="M462,89.89V220.48l-60.12-34.72V45.92c0-9.73,2.73-17.06,7.49-21a15,15,0,0,1,5.25-.9c4.1,0,8.58,1.38,13.32,4.12C446.67,39,462,66.68,462,89.89Z" style="fill:#fff"></path><polygon points="431.82 207.77 427.88 205.5 427.88 26.71 431.82 26.71 431.82 207.77" style="fill:#f5f5f5"></polygon><path d="M435.77,33.84V205.5l-3.94,2.27V30.69C433.17,31.66,434.48,32.7,435.77,33.84Z" style="fill:#e0e0e0"></path><polygon points="397.75 160.29 427.88 177.69 427.88 182.31 397.75 164.92 397.75 160.29" style="fill:#f5f5f5"></polygon><polygon points="401.83 157.94 397.75 160.29 427.88 177.69 427.88 173.06 401.83 157.94" style="fill:#ebebeb"></polygon><polygon points="431.82 179.96 461.95 197.35 461.95 201.98 431.82 184.59 431.82 179.96" style="fill:#f5f5f5"></polygon><polygon points="435.89 177.61 431.82 179.96 461.95 197.35 461.95 192.73 435.89 177.61" style="fill:#ebebeb"></polygon><polygon points="397.75 57.06 427.88 74.45 427.88 79.07 397.75 61.69 397.75 57.06" style="fill:#f5f5f5"></polygon><polygon points="401.83 54.71 397.75 57.06 427.88 74.45 427.88 69.83 401.83 54.71" style="fill:#ebebeb"></polygon><polygon points="431.82 76.72 461.95 94.12 461.95 98.74 431.82 81.35 431.82 76.72" style="fill:#f5f5f5"></polygon><polygon points="435.89 74.38 431.82 76.72 461.95 94.12 461.95 89.49 435.89 74.38" style="fill:#ebebeb"></polygon></g></g><g id="freepik--Plants--inject-63"><g id="freepik--Plant--inject-63"><g id="freepik--Pot--inject-63"><path d="M438.39,356.8c-9-9.31-14.32-30.8-5.52-38.19h44.76c8.8,7.38,3.5,28.87-5.51,38.18l-.25.26-.31.3c-.25.25-.52.5-.81.74l-.22.17c-.22.17-.44.35-.68.52a12.18,12.18,0,0,1-1.17.75c-7.41,4.33-19.44,4.33-26.86,0h0a11.76,11.76,0,0,1-1.18-.76l-.63-.48-.27-.21c-.28-.24-.54-.47-.78-.71l-.36-.36Z" style="fill:#37474f"></path><path d="M473.74,315.64c10.22,6,10.22,15.63,0,21.59s-26.77,6-37,0-10.21-15.63,0-21.59S463.53,309.68,473.74,315.64Z" style="fill:#455a64"></path><path d="M468.83,318.51c7.5,4.38,7.5,11.48,0,15.86s-19.66,4.38-27.16,0-7.5-11.48,0-15.86S461.33,314.13,468.83,318.51Z" style="fill:#263238"></path><path d="M441.67,326c7.5-4.38,19.66-4.38,27.16,0a12.33,12.33,0,0,1,4.49,4.16,12.43,12.43,0,0,1-4.49,4.17c-7.5,4.38-19.66,4.38-27.16,0a12.52,12.52,0,0,1-4.49-4.17A12.41,12.41,0,0,1,441.67,326Z" style="fill:#fafafa"></path></g><g id="freepik--Leaves--inject-63"><path d="M452.47,275c.33,2.8,2.06,6.41,4.79,7.75a6.52,6.52,0,0,0,6.61-.23c1.2-.95-2.43-.67-4.65-2.25s-2.37-2.61-.15-1.35,6,2.63,8.13,2.39,3.82-2.78,3.49-3.33-2.19.74-5.38.61-5.68-1.53-6.57-2.92-.28-1.15,2.58.21,8.16,2.38,10.09.81,2-4,1.67-4.53-2.71,1.72-6.61,1.61-7.1-1.79-6.7-3.31,1.67-.83,4.69-.36,8.82.57,10.36-.5,1.77-4.6,1.1-4.92-3.15,2-7.12,2.28-5.88-.83-4.38-1.42,9.37-.6,10.42-1.56,1.3-7.3,1.3-7.3-4.61-1.94-5.78-1.79-4.94,4.12-5.82,6-1.52,0-1-1.41,3.09-5,4.73-5.7c-2.16-1-4.75-1.72-5.79,0a26.89,26.89,0,0,0-2.44,9c-.16,2.58-2,5-2.25,1.68s1.06-9.48,3-11c-2.06.18-7.38,2.24-7.32,5.9s1.33,7.14,1.27,8.3-1.39.07-2.26-2.46-1.68-6-.38-7.8c-2.12.69-4.19,1.58-3.11,5.53s3.17,5.19,2.91,5.93-2.78-1.87-3.56-4.13a5.61,5.61,0,0,0-.24,6.18A9.41,9.41,0,0,0,452.47,275Z" style="fill:#1C5DE4"></path><path d="M452.47,275c.33,2.8,2.06,6.41,4.79,7.75a6.52,6.52,0,0,0,6.61-.23c1.2-.95-2.43-.67-4.65-2.25s-2.37-2.61-.15-1.35,6,2.63,8.13,2.39,3.82-2.78,3.49-3.33-2.19.74-5.38.61-5.68-1.53-6.57-2.92-.28-1.15,2.58.21,8.16,2.38,10.09.81,2-4,1.67-4.53-2.71,1.72-6.61,1.61-7.1-1.79-6.7-3.31,1.67-.83,4.69-.36,8.82.57,10.36-.5,1.77-4.6,1.1-4.92-3.15,2-7.12,2.28-5.88-.83-4.38-1.42,9.37-.6,10.42-1.56,1.3-7.3,1.3-7.3-4.61-1.94-5.78-1.79-4.94,4.12-5.82,6-1.52,0-1-1.41,3.09-5,4.73-5.7c-2.16-1-4.75-1.72-5.79,0a26.89,26.89,0,0,0-2.44,9c-.16,2.58-2,5-2.25,1.68s1.06-9.48,3-11c-2.06.18-7.38,2.24-7.32,5.9s1.33,7.14,1.27,8.3-1.39.07-2.26-2.46-1.68-6-.38-7.8c-2.12.69-4.19,1.58-3.11,5.53s3.17,5.19,2.91,5.93-2.78-1.87-3.56-4.13a5.61,5.61,0,0,0-.24,6.18A9.41,9.41,0,0,0,452.47,275Z" style="fill:#fff;opacity:0.25"></path><path d="M443.4,285.58a11.45,11.45,0,0,1,6.71,2.7,19.68,19.68,0,0,1,5.74,7.89,44.46,44.46,0,0,1,2.74,11.19,68.57,68.57,0,0,1,.65,11.89,36.92,36.92,0,0,1-2.55,13.15c-.13.3-.45.16-.38-.15a73.3,73.3,0,0,0,1.89-10.8,61.66,61.66,0,0,0-.22-11.12c-.7-6.7-1.87-14.17-6.42-19.44a17.71,17.71,0,0,0-8.15-5.21S443.36,285.58,443.4,285.58Z" style="fill:#455a64"></path><path d="M444.87,297.73c4.89,3.39,7.8,8.95,9.31,14.58a44.66,44.66,0,0,1,1.37,10.22,42.52,42.52,0,0,1-.72,10.39c0,.2-.58.25-.53-.12a51.21,51.21,0,0,0,.53-10.1,53.69,53.69,0,0,0-1.3-9.88,30.89,30.89,0,0,0-8.69-14.93S444.79,297.68,444.87,297.73Z" style="fill:#455a64"></path><path d="M450.18,308.6c0-.16.17,0,.17.08A110,110,0,0,0,451,320.3c.22,1.87.51,3.74.88,5.59s.93,3.8,1.25,5.73c0,.22-.27.65-.41.3-1.45-3.48-2-7.53-2.39-11.25A53.54,53.54,0,0,1,450.18,308.6Z" style="fill:#455a64"></path><path d="M457.44,268.12a32.57,32.57,0,0,0-7.06,11.56,40.53,40.53,0,0,0-1.68,6.1,22.18,22.18,0,0,0-.59,6.38c0,.27.41.56.49.16a28.73,28.73,0,0,0,.28-3.22c.12-1.06.28-2.12.48-3.17a38.79,38.79,0,0,1,1.85-6.46,47.71,47.71,0,0,1,6.29-11.21C457.55,268.19,457.54,268,457.44,268.12Z" style="fill:#455a64"></path><path d="M449.2,289.46c.89,4.67-4.36,10.41-11.12,9.53,2.9-2.14,6.08-5.93,4.68-7.06s-.89,3.55-5.67,6.15c0,0-2.21.28-4.14-2.74,4.86-1.46,8.52-6.6,6.85-6.26-.66.13-2.57,2.65-5.53,3.66s-5.35.33-7.87-3.8c2.24.35,5.56.54,8-1,1.76-1.12,2.48-2-1-1.16s-4.66,1.26-7.37.24-4.12-4.68-4.12-4.68,4.33,1.93,5.84.84-3.93-.55-6.62-2.86a19.27,19.27,0,0,1-4.09-5s2.67-3.08,4-3.6c1.74,2.55,3.84,6,4.46,5.62s.31-2.56-2.59-5.43a3.16,3.16,0,0,1,3.51-1.22s1.69.86,2.78,6.39c.22,1.16,1.16,2.44.26-2a12.94,12.94,0,0,0-2-5.26,5,5,0,0,1,5.68,2.53c3.65,6,3.14,8.22,4,8.15.32,0,.29-1.27-.73-4.6a17.21,17.21,0,0,0-2.31-5s3-1.81,5.81,1.75,3.25,9.21,3.47,9.38c.57.45.91-3.82.21-6.42-.66-2.42-1.08-3.57-1.08-3.57a5.58,5.58,0,0,1,5.28,4c1.46,4.19-.57,8.95.34,9s2-8.23,2-8.23S455.31,286.11,449.2,289.46Z" style="fill:#1C5DE4"></path><path d="M449.2,289.46c.89,4.67-4.36,10.41-11.12,9.53,2.9-2.14,6.08-5.93,4.68-7.06s-.89,3.55-5.67,6.15c0,0-2.21.28-4.14-2.74,4.86-1.46,8.52-6.6,6.85-6.26-.66.13-2.57,2.65-5.53,3.66s-5.35.33-7.87-3.8c2.24.35,5.56.54,8-1,1.76-1.12,2.48-2-1-1.16s-4.66,1.26-7.37.24-4.12-4.68-4.12-4.68,4.33,1.93,5.84.84-3.93-.55-6.62-2.86a19.27,19.27,0,0,1-4.09-5s2.67-3.08,4-3.6c1.74,2.55,3.84,6,4.46,5.62s.31-2.56-2.59-5.43a3.16,3.16,0,0,1,3.51-1.22s1.69.86,2.78,6.39c.22,1.16,1.16,2.44.26-2a12.94,12.94,0,0,0-2-5.26,5,5,0,0,1,5.68,2.53c3.65,6,3.14,8.22,4,8.15.32,0,.29-1.27-.73-4.6a17.21,17.21,0,0,0-2.31-5s3-1.81,5.81,1.75,3.25,9.21,3.47,9.38c.57.45.91-3.82.21-6.42-.66-2.42-1.08-3.57-1.08-3.57a5.58,5.58,0,0,1,5.28,4c1.46,4.19-.57,8.95.34,9s2-8.23,2-8.23S455.31,286.11,449.2,289.46Z" style="fill:#fff;opacity:0.2"></path><path d="M459.64,299.75c1.43-2.38,7.12-4.64,15-2.2a21.81,21.81,0,0,1,7.69,4.35c-5.19-1.45-12.23-2.85-13.21-1s2,1.44,4.8,1.29a31,31,0,0,1,9.35.64,16.17,16.17,0,0,1,5.25,6.49c-4.93-3.8-11.63-4.93-14.66-4.38s-3.34,1.74-.91,1.7,7.21-.3,17.45,5.68c0,0,1.78,2.24,1.18,7.09-1.49-2.41-4.2-4.08-6.61-5.44a36.23,36.23,0,0,0-7.71-3.44c-.48-.13-1.45-.38-1.85,0s-.05,1.1.33,1.41a9.28,9.28,0,0,0,2.77,1.36,38.61,38.61,0,0,1,3.77,1.53,39.29,39.29,0,0,1,6,3c1,.68,2.39,4.35,1.19,7.6C487,324,482.26,318.86,478.1,318s.37,1.42,3.33,3.71c2.54,2,7,5.94,7,5.94a67.8,67.8,0,0,1-4.13,7.73,26.27,26.27,0,0,1-8.45-2.65s-.15-8.69-1.91-10.06-1.2,2.25-.32,5.55,1.08,4.5,1.08,4.5-8.63-1.12-11.08-4.9c.43-1.7,2.05-6,3-8.83,1-3,2.54-5.34,1.79-6.17s-2.43,1.32-3.94,4.11a35.21,35.21,0,0,0-3,9s-5.37-2.91-6.81-5.17c-.68-5.58,3.75-10.27,4.6-10.91s.46-3.71-3.58-1a8.87,8.87,0,0,0-4.08,7.43s-4-1.74-4.61-5.87C446.06,303.72,450.33,298.56,459.64,299.75Z" style="fill:#1C5DE4"></path><path d="M459.64,299.75c1.43-2.38,7.12-4.64,15-2.2a21.81,21.81,0,0,1,7.69,4.35c-5.19-1.45-12.23-2.85-13.21-1s2,1.44,4.8,1.29a31,31,0,0,1,9.35.64,16.17,16.17,0,0,1,5.25,6.49c-4.93-3.8-11.63-4.93-14.66-4.38s-3.34,1.74-.91,1.7,7.21-.3,17.45,5.68c0,0,1.78,2.24,1.18,7.09-1.49-2.41-4.2-4.08-6.61-5.44a36.23,36.23,0,0,0-7.71-3.44c-.48-.13-1.45-.38-1.85,0s-.05,1.1.33,1.41a9.28,9.28,0,0,0,2.77,1.36,38.61,38.61,0,0,1,3.77,1.53,39.29,39.29,0,0,1,6,3c1,.68,2.39,4.35,1.19,7.6C487,324,482.26,318.86,478.1,318s.37,1.42,3.33,3.71c2.54,2,7,5.94,7,5.94a67.8,67.8,0,0,1-4.13,7.73,26.27,26.27,0,0,1-8.45-2.65s-.15-8.69-1.91-10.06-1.2,2.25-.32,5.55,1.08,4.5,1.08,4.5-8.63-1.12-11.08-4.9c.43-1.7,2.05-6,3-8.83,1-3,2.54-5.34,1.79-6.17s-2.43,1.32-3.94,4.11a35.21,35.21,0,0,0-3,9s-5.37-2.91-6.81-5.17c-.68-5.58,3.75-10.27,4.6-10.91s.46-3.71-3.58-1a8.87,8.87,0,0,0-4.08,7.43s-4-1.74-4.61-5.87C446.06,303.72,450.33,298.56,459.64,299.75Z" style="fill:#fff;opacity:0.25"></path><path d="M442.25,292.87c3.79-.74,9.23,0,12.13,3s3.2,6.76,2.46,8.72-1.88-2.88-4.89-5.12-4.39-2-1.82.37,6,6.76,6.54,9.61-2,6.14-2.88,5.94,0-3.16-1.46-7.27-4.38-6.76-6.57-7.34-1.62.12,1.36,3.28,6.53,9.64,5.29,12.82-4.36,4.33-5.21,4.07,1.1-4.25-.67-9.29-5.32-8.52-7.13-7.35-.38,2.53,1.5,6.27,4.45,11.27,3.69,13.73-5.25,4.24-5.95,3.5,1.25-4.94,0-10.25-3.55-7.32-3.69-5.12,3.15,12.47,2.34,14.25-9,4.77-9,4.77-4.47-5.2-4.77-6.79,3.3-8.19,5.34-10.1-.6-2-2.24-.69-5.23,6.13-5.45,8.57c-2.24-2.41-4.25-5.48-2.42-7.57s7.4-5.66,10.7-7,5.65-4.65,1.25-3.63-11.93,5.36-13.16,8.51c-.63-2.77-.18-10.58,4.62-12s9.87-1.26,11.37-1.83-.49-1.84-4.16-1.91-8.54.33-10.34,2.78c0-3.05.3-6.13,5.91-6.38s8.1,2,9,1.3-3.61-2.84-6.89-2.91a7.69,7.69,0,0,1,8-2.9A13,13,0,0,1,442.25,292.87Z" style="fill:#1C5DE4"></path><path d="M459.89,283.14c-.14-4,4.39-7.33,7.26-7.33-2.31,1.78-3.57,4.81-2.4,3.54,2.45-2.67,4.09-4.1,7.91-4.94a6.54,6.54,0,0,1,6.16,1.92,23.46,23.46,0,0,0-7.62,2.17c-1.14.59-4,2.43-.21.77,6-2.62,9.14-1.45,9.14-1.45a8.77,8.77,0,0,1,4.07,3.39c-4.58-2-9.9-.29-11.87.35s-3.25,2.37,0,1.24,9.81-1.47,12.89.89,3.94,7.75,3.94,7.75-11.21-6.58-13.32-4.31c.59,1.49,10.13,3.14,12.58,5.32s2.15,9,2.15,9-7.06,2.52-9.34,2.14-4.88-8.17-6.31-8.89-1.5,6.12,1.82,10.53c0,0-3.21,2-5-.43s-3-8.57-2.52-11.75-1.78-1.59-2.23.88-.31,7.45,1.29,10.09c0,0-4.77-.11-6.72-1.77s-.67-8.9.59-11.12-.91-2.65-2.17-.43-2.47,7.86-1.83,10.19c-3.73-2.95-6.05-7.75-4.17-12.8C455.89,282.78,459.89,283.14,459.89,283.14Z" style="fill:#1C5DE4"></path></g></g><g id="freepik--plant--inject-63"><g id="freepik--pot--inject-63"><path d="M37.54,358c-7.18-7.42-11.4-26-4.4-31.93H68.79c7,5.88,2.79,24.5-4.39,31.92l-.19.2-.25.25c-.2.2-.42.39-.65.58l-.17.14c-.18.14-.35.28-.55.41a8.5,8.5,0,0,1-.92.6c-5.91,3.45-15.49,3.45-21.4,0h0a10.61,10.61,0,0,1-.94-.6c-.18-.13-.34-.26-.5-.39l-.21-.17c-.23-.18-.43-.37-.63-.56l-.29-.28Z" style="fill:#37474f"></path><path d="M65.7,323.72c8.13,4.75,8.13,12.45,0,17.2s-21.33,4.75-29.46,0-8.13-12.45,0-17.19S57.56,319,65.7,323.72Z" style="fill:#455a64"></path><path d="M61.78,326c6,3.49,6,9.14,0,12.63s-15.65,3.49-21.63,0-6-9.14,0-12.63S55.81,322.52,61.78,326Z" style="fill:#263238"></path><path d="M40.15,332c6-3.48,15.66-3.48,21.63,0a10,10,0,0,1,3.58,3.32,10,10,0,0,1-3.58,3.32c-6,3.49-15.65,3.49-21.63,0a10,10,0,0,1-3.58-3.32A10,10,0,0,1,40.15,332Z" style="fill:#fafafa"></path></g><path d="M48.57,284.46c-2.73,3-10.33,3.78-13.47-4.22-3-7.5-6.13-14.61-7-17.37a2.84,2.84,0,0,1,1.82-3.66s.21-4.12,7.2-1.33,11.91,7,15,13.89S53.24,283.54,48.57,284.46Z" style="fill:#1C5DE4"></path><path d="M48.57,284.46c-2.73,3-10.33,3.78-13.47-4.22-3-7.5-6.13-14.61-7-17.37a2.84,2.84,0,0,1,1.82-3.66s.21-4.12,7.2-1.33,11.91,7,15,13.89S53.24,283.54,48.57,284.46Z" style="fill:#fff;opacity:0.45"></path><path d="M51.59,295a36.41,36.41,0,0,0-.6-4.17,58.8,58.8,0,0,0-2.32-8.05,59.06,59.06,0,0,0-8.09-14.94,51.37,51.37,0,0,0-6.36-7.22c-.08-.06-.13.1-.08.15a63.54,63.54,0,0,1,10,13.76,64,64,0,0,1,5.76,15.61c.35,1.52.67,3.05,1,4.58s.45,3.13.71,4.69c0,.16.27.25.28,0A28.78,28.78,0,0,0,51.59,295Z" style="fill:#1C5DE4"></path><path d="M51.59,295a36.41,36.41,0,0,0-.6-4.17,58.8,58.8,0,0,0-2.32-8.05,59.06,59.06,0,0,0-8.09-14.94,51.37,51.37,0,0,0-6.36-7.22c-.08-.06-.13.1-.08.15a63.54,63.54,0,0,1,10,13.76,64,64,0,0,1,5.76,15.61c.35,1.52.67,3.05,1,4.58s.45,3.13.71,4.69c0,.16.27.25.28,0A28.78,28.78,0,0,0,51.59,295Z" style="opacity:0.30000000000000004"></path><path d="M53.93,282.39c-6.28,1.94-10.94-3-9.32-10.64s9.68-16.2,12.72-13.91c1.9-1.9,6.1-1.22,8.07,5S65.58,285.11,53.93,282.39Z" style="fill:#1C5DE4"></path><path d="M53.93,282.39c-6.28,1.94-10.94-3-9.32-10.64s9.68-16.2,12.72-13.91c1.9-1.9,6.1-1.22,8.07,5S65.58,285.11,53.93,282.39Z" style="fill:#fff;opacity:0.25"></path><path d="M57.61,262.51a83.77,83.77,0,0,0-4.17,13.8A136,136,0,0,0,51,290.75a226.86,226.86,0,0,0-1.25,28.31c0,2.62.05,5.23.1,7.84s0,5.41.24,8.09c.09,1,1.55.75,1.57-.19.09-4.7-.17-9.43-.22-14.13s0-9.3.09-13.95a195.54,195.54,0,0,1,2.54-28.28c.45-2.6.94-5.2,1.55-7.77s1.42-5.37,2.13-8.05C57.79,262.51,57.67,262.37,57.61,262.51Z" style="fill:#1C5DE4"></path><path d="M57.61,262.51a83.77,83.77,0,0,0-4.17,13.8A136,136,0,0,0,51,290.75a226.86,226.86,0,0,0-1.25,28.31c0,2.62.05,5.23.1,7.84s0,5.41.24,8.09c.09,1,1.55.75,1.57-.19.09-4.7-.17-9.43-.22-14.13s0-9.3.09-13.95a195.54,195.54,0,0,1,2.54-28.28c.45-2.6.94-5.2,1.55-7.77s1.42-5.37,2.13-8.05C57.79,262.51,57.67,262.37,57.61,262.51Z" style="opacity:0.30000000000000004"></path><path d="M43.72,304.91c-2.74,3.1-9,2.82-13.24-2.71s-6.74-26.36-.81-25c1.26-2.78,17.64,3.89,19.74,17.48C50.94,304.53,43.72,304.91,43.72,304.91Z" style="fill:#1C5DE4"></path><path d="M43.72,304.91c-2.74,3.1-9,2.82-13.24-2.71s-6.74-26.36-.81-25c1.26-2.78,17.64,3.89,19.74,17.48C50.94,304.53,43.72,304.91,43.72,304.91Z" style="fill:#fff;opacity:0.25"></path><path d="M48.62,314.74a29.05,29.05,0,0,0-.81-3.79q-1-3.82-2.44-7.53a79,79,0,0,0-7.32-14.37,70.93,70.93,0,0,0-5.19-7.34c0-.06-.1.08-.07.13,1.46,2.13,2.94,4.24,4.26,6.47a79.13,79.13,0,0,1,3.71,7.14,99.76,99.76,0,0,1,5.41,14.49c.4,1.41.73,2.84,1.14,4.25s1,2.89,1.35,4.36c.05.22.33.3.3,0C48.83,317.29,48.79,316,48.62,314.74Z" style="fill:#1C5DE4"></path><path d="M48.62,314.74a29.05,29.05,0,0,0-.81-3.79q-1-3.82-2.44-7.53a79,79,0,0,0-7.32-14.37,70.93,70.93,0,0,0-5.19-7.34c0-.06-.1.08-.07.13,1.46,2.13,2.94,4.24,4.26,6.47a79.13,79.13,0,0,1,3.71,7.14,99.76,99.76,0,0,1,5.41,14.49c.4,1.41.73,2.84,1.14,4.25s1,2.89,1.35,4.36c.05.22.33.3.3,0C48.83,317.29,48.79,316,48.62,314.74Z" style="opacity:0.30000000000000004"></path><path d="M53.75,301.83c-3.59-.82-3.77-5.12.71-10.41s15.78-7.59,16.31-5.36c2.51,0,2.51,7.86-3,15.08S54.08,306.68,53.75,301.83Z" style="fill:#1C5DE4"></path><path d="M53.75,301.83c-3.59-.82-3.77-5.12.71-10.41s15.78-7.59,16.31-5.36c2.51,0,2.51,7.86-3,15.08S54.08,306.68,53.75,301.83Z" style="fill:#fff;opacity:0.25"></path><path d="M60.77,294.14a28.52,28.52,0,0,0-10.38,13.4c-.11.31.42.76.54.42a32.93,32.93,0,0,1,9.86-13.74S60.82,294.11,60.77,294.14Z" style="fill:#1C5DE4"></path><path d="M60.77,294.14a28.52,28.52,0,0,0-10.38,13.4c-.11.31.42.76.54.42a32.93,32.93,0,0,1,9.86-13.74S60.82,294.11,60.77,294.14Z" style="opacity:0.30000000000000004"></path><path d="M57.84,328.06c-5,2-2.83,7.92,2,12.42A22.23,22.23,0,0,0,75,345.92c3.33-.24,4.18-.7,4.18-.7a37.61,37.61,0,0,0,0-8.22,15.91,15.91,0,0,0-11.71-12.61C59.7,322.3,57.84,325.1,57.84,328.06Z" style="fill:#1C5DE4"></path><path d="M57.84,328.06c-5,2-2.83,7.92,2,12.42A22.23,22.23,0,0,0,75,345.92c3.33-.24,4.18-.7,4.18-.7a37.61,37.61,0,0,0,0-8.22,15.91,15.91,0,0,0-11.71-12.61C59.7,322.3,57.84,325.1,57.84,328.06Z" style="fill:#fff;opacity:0.45"></path><path d="M71.59,336.79a40.22,40.22,0,0,0-7.6-7c-2.83-1.86-6.6-3.45-10-2.29-1.32.45-3.36,1.76-3.11,3.38,0,.17.31.57.5.34a13.73,13.73,0,0,1,1.79-2.08,5.27,5.27,0,0,1,2.67-1,12.33,12.33,0,0,1,7,1.58c3.36,1.78,6.07,4.54,8.74,7.19C71.58,336.9,71.61,336.82,71.59,336.79Z" style="fill:#1C5DE4"></path><path d="M71.59,336.79a40.22,40.22,0,0,0-7.6-7c-2.83-1.86-6.6-3.45-10-2.29-1.32.45-3.36,1.76-3.11,3.38,0,.17.31.57.5.34a13.73,13.73,0,0,1,1.79-2.08,5.27,5.27,0,0,1,2.67-1,12.33,12.33,0,0,1,7,1.58c3.36,1.78,6.07,4.54,8.74,7.19C71.58,336.9,71.61,336.82,71.59,336.79Z" style="opacity:0.30000000000000004"></path><path d="M38.93,302.63c.48-2.26-2.79-7.68-13-8.71S8.15,297.2,6.61,299.17s-2.31,4.05-.47,4.57,8.21,1.13,12.39,3.06S31.2,314.4,37,312.71,41.82,304.88,38.93,302.63Z" style="fill:#1C5DE4"></path><path d="M38.93,302.63c.48-2.26-2.79-7.68-13-8.71S8.15,297.2,6.61,299.17s-2.31,4.05-.47,4.57,8.21,1.13,12.39,3.06S31.2,314.4,37,312.71,41.82,304.88,38.93,302.63Z" style="fill:#fff;opacity:0.45"></path><path d="M46.67,310.51c-4.29-8.87-15.36-11.57-24.4-11.52a35.59,35.59,0,0,0-8.83,1.14s0,.11,0,.1a47,47,0,0,1,14.74-.14,30.56,30.56,0,0,1,13.46,5.19,18.19,18.19,0,0,1,4.82,5.4C46.6,310.9,46.76,310.69,46.67,310.51Z" style="fill:#1C5DE4"></path><path d="M46.67,310.51c-4.29-8.87-15.36-11.57-24.4-11.52a35.59,35.59,0,0,0-8.83,1.14s0,.11,0,.1a47,47,0,0,1,14.74-.14,30.56,30.56,0,0,1,13.46,5.19,18.19,18.19,0,0,1,4.82,5.4C46.6,310.9,46.76,310.69,46.67,310.51Z" style="opacity:0.30000000000000004"></path><path d="M62.66,290.75c-.14,3.56,4.88,5.63,9.73,2.55s9.93-6.08,14.42-7.24,6.63-4.83,5.21-6.6-3.68-6.25-15.49-4.79-16,6.79-17.62,10.54S60.88,291.77,62.66,290.75Z" style="fill:#1C5DE4"></path><path d="M62.66,290.75c-.14,3.56,4.88,5.63,9.73,2.55s9.93-6.08,14.42-7.24,6.63-4.83,5.21-6.6-3.68-6.25-15.49-4.79-16,6.79-17.62,10.54S60.88,291.77,62.66,290.75Z" style="fill:#fff;opacity:0.45"></path><path d="M81.88,279.44a12.79,12.79,0,0,0-5.06.54,24.93,24.93,0,0,0-4.34,1.55,24,24,0,0,0-7.39,5.35,20.23,20.23,0,0,0-1.67,2A8.9,8.9,0,0,0,62.16,291c-.08.24.27.62.47.38.59-.67,1-1.5,1.57-2.21A24.69,24.69,0,0,1,66.11,287a23.6,23.6,0,0,1,4.55-3.59,28.32,28.32,0,0,1,5-2.46c1-.35,2-.63,2.94-.88a10,10,0,0,1,3.22-.44S81.94,279.45,81.88,279.44Z" style="fill:#1C5DE4"></path><path d="M81.88,279.44a12.79,12.79,0,0,0-5.06.54,24.93,24.93,0,0,0-4.34,1.55,24,24,0,0,0-7.39,5.35,20.23,20.23,0,0,0-1.67,2A8.9,8.9,0,0,0,62.16,291c-.08.24.27.62.47.38.59-.67,1-1.5,1.57-2.21A24.69,24.69,0,0,1,66.11,287a23.6,23.6,0,0,1,4.55-3.59,28.32,28.32,0,0,1,5-2.46c1-.35,2-.63,2.94-.88a10,10,0,0,1,3.22-.44S81.94,279.45,81.88,279.44Z" style="opacity:0.30000000000000004"></path><path d="M54.18,310c-1.66-1.66-6.15-1.27-8.28,3.62s2.34,10.25,2.84,11.75c2-1.18,3.65-.48,7.26-1.18a9,9,0,0,0,6.93-9C62.69,310.68,60.8,307.72,54.18,310Z" style="fill:#1C5DE4"></path><path d="M54.18,310c-1.66-1.66-6.15-1.27-8.28,3.62s2.34,10.25,2.84,11.75c2-1.18,3.65-.48,7.26-1.18a9,9,0,0,0,6.93-9C62.69,310.68,60.8,307.72,54.18,310Z" style="fill:#fff;opacity:0.45"></path><path d="M54.12,309.48a6.73,6.73,0,0,0-2.2,2.27,12.49,12.49,0,0,0-1.42,2.74,11.62,11.62,0,0,0-.62,6.23c0,.08.08,0,.07,0a12.88,12.88,0,0,1,1-6.16A12.75,12.75,0,0,1,52.49,312a12.11,12.11,0,0,1,1-1.15,6.56,6.56,0,0,0,.95-.95C54.56,309.76,54.37,309.35,54.12,309.48Z" style="fill:#1C5DE4"></path><path d="M54.12,309.48a6.73,6.73,0,0,0-2.2,2.27,12.49,12.49,0,0,0-1.42,2.74,11.62,11.62,0,0,0-.62,6.23c0,.08.08,0,.07,0a12.88,12.88,0,0,1,1-6.16A12.75,12.75,0,0,1,52.49,312a12.11,12.11,0,0,1,1-1.15,6.56,6.56,0,0,0,.95-.95C54.56,309.76,54.37,309.35,54.12,309.48Z" style="opacity:0.30000000000000004"></path><path d="M46.39,319.88c-.16-3.64-4.1-6.52-9.72-8.19a15.28,15.28,0,0,0-15.78,4.19c-4.1,4.46-6.22,8.25-4.55,9.31s9.1,3.8,14,5.32,11.23,2,16.09-.91S50.94,321.7,46.39,319.88Z" style="fill:#1C5DE4"></path><path d="M46.39,319.88c-.16-3.64-4.1-6.52-9.72-8.19a15.28,15.28,0,0,0-15.78,4.19c-4.1,4.46-6.22,8.25-4.55,9.31s9.1,3.8,14,5.32,11.23,2,16.09-.91S50.94,321.7,46.39,319.88Z" style="fill:#fff;opacity:0.25"></path><path d="M46.7,319.47a15.55,15.55,0,0,0-6.1-1.63,28.36,28.36,0,0,0-6.11.08,37.89,37.89,0,0,0-6.33,1.33c-1.08.32-2.16.68-3.21,1.07A20.41,20.41,0,0,0,22,321.53s-.06.14,0,.12c1-.21,2-.61,3-.92s2.18-.66,3.27-.94a42.89,42.89,0,0,1,6.24-1.18,28,28,0,0,1,6.34,0A37.86,37.86,0,0,1,46.64,320C47,320.15,46.92,319.6,46.7,319.47Z" style="fill:#1C5DE4"></path><path d="M46.7,319.47a15.55,15.55,0,0,0-6.1-1.63,28.36,28.36,0,0,0-6.11.08,37.89,37.89,0,0,0-6.33,1.33c-1.08.32-2.16.68-3.21,1.07A20.41,20.41,0,0,0,22,321.53s-.06.14,0,.12c1-.21,2-.61,3-.92s2.18-.66,3.27-.94a42.89,42.89,0,0,1,6.24-1.18,28,28,0,0,1,6.34,0A37.86,37.86,0,0,1,46.64,320C47,320.15,46.92,319.6,46.7,319.47Z" style="opacity:0.30000000000000004"></path><path d="M58,314.46c-4-3.19-2.67-10.84,11.37-11.25S93.43,306.47,93,311c2.26,2.26,1.11,8.59-10.26,10.57S55.07,322.55,58,314.46Z" style="fill:#1C5DE4"></path><path d="M58,314.46c-4-3.19-2.67-10.84,11.37-11.25S93.43,306.47,93,311c2.26,2.26,1.11,8.59-10.26,10.57S55.07,322.55,58,314.46Z" style="fill:#fff;opacity:0.25"></path><path d="M86.37,311a60.58,60.58,0,0,0-12.55-.74,48.49,48.49,0,0,0-11.58,1.34,16.88,16.88,0,0,0-2.83,1.05,12.15,12.15,0,0,0-1.23.66c-.32.19-.68.36-.79.73a.38.38,0,0,0,.42.45,15.12,15.12,0,0,0,2.45-1.22,20.91,20.91,0,0,1,2.44-.89,31,31,0,0,1,4.88-1,86.91,86.91,0,0,1,11.85-.65c2.31,0,4.61.21,6.91.39C86.41,311.2,86.44,311.05,86.37,311Z" style="fill:#1C5DE4"></path><path d="M86.37,311a60.58,60.58,0,0,0-12.55-.74,48.49,48.49,0,0,0-11.58,1.34,16.88,16.88,0,0,0-2.83,1.05,12.15,12.15,0,0,0-1.23.66c-.32.19-.68.36-.79.73a.38.38,0,0,0,.42.45,15.12,15.12,0,0,0,2.45-1.22,20.91,20.91,0,0,1,2.44-.89,31,31,0,0,1,4.88-1,86.91,86.91,0,0,1,11.85-.65c2.31,0,4.61.21,6.91.39C86.41,311.2,86.44,311.05,86.37,311Z" style="opacity:0.30000000000000004"></path></g></g><g id="freepik--Device--inject-63"><g id="freepik--Mobile--inject-63"><g id="freepik--mobile--inject-63"><path d="M304.22,419.6,204,361.74a13.9,13.9,0,0,1-6.29-10.9V101.6l.49.29c19.34,11.22,87.3,50.31,99.64,57.51a10,10,0,0,1,1.93,1.45,14.09,14.09,0,0,1,4.42,9.49Zm19.41-272.17A18.42,18.42,0,0,0,315.3,133L197.5,65c-4.61-2.65-9.94-1.52-13.18.35s-6.88,3.89-6.88,11.23V364a17.23,17.23,0,0,0,1.13,6.38,15.89,15.89,0,0,0,7.21,8.06l117.8,68c4.6,2.65,10.25.61,13.49-1.26s6.57-5,6.57-10.32Z" style="fill:#1C5DE4"></path><path d="M323.63,147.43V434.87c0,5.31-3.34,8.45-6.57,10.32s-8.89,3.91-13.49,1.26l-117.8-68a15.89,15.89,0,0,1-7.21-8.06l.47-.26,1.29-.75a14.56,14.56,0,0,0,5.67,7l115,66.4c4.94,2.85,9,.52,9-5.18V152.43a12.06,12.06,0,0,0-1.71-5.75l12.92-7.46A17,17,0,0,1,323.63,147.43Z" style="fill:#1C5DE4"></path><path d="M323.63,147.43V434.87c0,5.31-3.34,8.45-6.57,10.32s-8.89,3.91-13.49,1.26l-117.8-68a15.89,15.89,0,0,1-7.21-8.06l.47-.26,1.29-.75a14.56,14.56,0,0,0,5.67,7l115,66.4c4.94,2.85,9,.52,9-5.18V152.43a12.06,12.06,0,0,0-1.71-5.75l12.92-7.46A17,17,0,0,1,323.63,147.43Z" style="opacity:0.4"></path><path d="M304.22,419.6,204,361.74a13.9,13.9,0,0,1-6.29-10.9V101.6l.49.29c19.34,11.22,87.3,50.31,99.64,57.51a10,10,0,0,1,1.93,1.45,14.09,14.09,0,0,1,4.42,9.49ZM310,152.43a12.92,12.92,0,0,0-5.85-10.12L186,74.1c-3.65-2.11-6.63-.38-6.63,3.83V364.87a12.22,12.22,0,0,0,1,4.5,14.56,14.56,0,0,0,5.67,7l115,66.4c4.94,2.85,9,.52,9-5.18Z" style="fill:#1C5DE4"></path><path d="M304.22,419.6,204,361.74a13.9,13.9,0,0,1-6.29-10.9V101.6l.49.29c19.34,11.22,87.3,50.31,99.64,57.51a10,10,0,0,1,1.93,1.45,14.09,14.09,0,0,1,4.42,9.49ZM310,152.43a12.92,12.92,0,0,0-5.85-10.12L186,74.1c-3.65-2.11-6.63-.38-6.63,3.83V364.87a12.22,12.22,0,0,0,1,4.5,14.56,14.56,0,0,0,5.67,7l115,66.4c4.94,2.85,9,.52,9-5.18Z" style="opacity:0.2"></path><path d="M313.84,180.36a7.06,7.06,0,0,1,3.08-5.57,2,2,0,0,1,2.11-.17c.39.23,1.91,1.08,2.31,1.32a2.4,2.4,0,0,1,1,2.19v38.6a7,7,0,0,1-3.08,5.57,2.09,2.09,0,0,1-2,.22c-.43-.23-2-1.13-2.38-1.37a2.4,2.4,0,0,1-1-2.18Z" style="fill:#1C5DE4"></path><path d="M313.84,180.36a7.06,7.06,0,0,1,3.08-5.57,2,2,0,0,1,2.11-.17c.39.23,1.91,1.08,2.31,1.32a2.4,2.4,0,0,1,1,2.19v38.6a7,7,0,0,1-3.08,5.57,2.09,2.09,0,0,1-2,.22c-.43-.23-2-1.13-2.38-1.37a2.4,2.4,0,0,1-1-2.18Z" style="opacity:0.2"></path><path d="M316.14,181.68v38.61c0,2.09,1.38,3,3.08,2a7,7,0,0,0,3.08-5.57v-38.6c0-2.1-1.37-3-3.08-2A7.05,7.05,0,0,0,316.14,181.68Z" style="fill:#1C5DE4"></path><path d="M316.14,181.68v38.61c0,2.09,1.38,3,3.08,2a7,7,0,0,0,3.08-5.57v-38.6c0-2.1-1.37-3-3.08-2A7.05,7.05,0,0,0,316.14,181.68Z" style="opacity:0.35000000000000003"></path></g><path d="M232.46,109.61c-1.08-.61-2-.11-2,1.13a4.29,4.29,0,0,0,2,3.37c1.07.63,1.94.12,1.94-1.12A4.34,4.34,0,0,0,232.46,109.61Zm24.22,14.74-16-9.24c-.94-.54-1.72-.15-1.72.88a3.72,3.72,0,0,0,1.72,2.87l16,9.24c.94.56,1.72.16,1.72-.87A3.77,3.77,0,0,0,256.68,124.35Z" style="fill:#1C5DE4"></path><path d="M232.46,109.61c-1.08-.61-2-.11-2,1.13a4.29,4.29,0,0,0,2,3.37c1.07.63,1.94.12,1.94-1.12A4.34,4.34,0,0,0,232.46,109.61Zm24.22,14.74-16-9.24c-.94-.54-1.72-.15-1.72.88a3.72,3.72,0,0,0,1.72,2.87l16,9.24c.94.56,1.72.16,1.72-.87A3.77,3.77,0,0,0,256.68,124.35Z" style="opacity:0.6000000000000001"></path><path d="M304.22,419.6v7.29c0,4-2.82,5.65-6.29,3.63L191.42,369a13.91,13.91,0,0,1-6.3-10.91V103.51c0-5.07,3.59-7.13,8-4.6L195,100l.66.38.95.55.8.47a2.14,2.14,0,0,0,.3.17V350.84a13.9,13.9,0,0,0,6.29,10.9Z" style="opacity:0.4"></path><path d="M198.46,365.23a13.39,13.39,0,0,1-6.07-10.51V100.11a8.91,8.91,0,0,1,.13-1.5,8.1,8.1,0,0,0-.87-.37,9.2,9.2,0,0,0-.18,1.87V354.72A14.39,14.39,0,0,0,198,366l106.2,61.33c0-.15,0-.3,0-.46v-.59Z" style="fill:#1C5DE4;opacity:0.6000000000000001"></path><path d="M198.46,365.23a13.39,13.39,0,0,1-6.07-10.51V100.11a8.91,8.91,0,0,1,.13-1.5,8.1,8.1,0,0,0-.87-.37,9.2,9.2,0,0,0-.18,1.87V354.72A14.39,14.39,0,0,0,198,366l106.2,61.33c0-.15,0-.3,0-.46v-.59Z" style="fill:#fff;opacity:0.2"></path></g></g><g id="freepik--Gift--inject-63"><g id="freepik--gift--inject-63"><g id="freepik--gift--inject-63"><polygon points="251.53 302.56 296.82 276.39 296.82 244.21 297.77 243.66 297.77 230.31 251.53 257.01 251.53 302.56" style="fill:#1C5DE4"></polygon><g style="opacity:0.45"><polygon points="251.53 302.56 296.82 276.39 296.82 244.21 297.77 243.66 297.77 230.31 251.53 257.01 251.53 302.56" style="fill:#fff"></polygon></g><polygon points="251.53 270.36 268.87 260.35 296.82 244.21 296.82 246.13 251.53 272.27 251.53 270.36" style="opacity:0.15"></polygon><polygon points="251.53 302.56 206.5 276.58 206.5 244.35 205.29 243.66 205.29 230.31 251.53 257.01 251.53 302.56" style="fill:#1C5DE4"></polygon><polygon points="251.53 302.56 206.5 276.58 206.5 244.35 205.29 243.66 205.29 230.31 251.53 257.01 251.53 302.56" style="fill:#fff;opacity:0.30000000000000004"></polygon><polygon points="206.49 244.35 251.53 270.36 251.53 272.27 206.49 246.29 206.49 244.35" style="opacity:0.1"></polygon><polygon points="205.29 230.31 251.53 203.62 297.77 230.31 251.53 257.01 205.29 230.31" style="fill:#1C5DE4"></polygon><g style="opacity:0.6000000000000001"><polygon points="205.29 230.31 251.53 203.62 297.77 230.31 251.53 257.01 205.29 230.31" style="fill:#fff"></polygon></g><polygon points="232.75 291.73 232.75 246.16 225.24 241.83 225.24 287.39 232.75 291.73" style="fill:#ebebeb"></polygon><polygon points="232.75 291.73 232.75 246.16 225.24 241.83 225.24 287.39 232.75 291.73" style="fill:#1C5DE4"></polygon><polygon points="232.75 291.73 232.75 246.16 225.24 241.83 225.24 287.39 232.75 291.73" style="opacity:0.4"></polygon><polygon points="270.31 291.73 270.31 246.16 277.82 241.83 277.82 287.39 270.31 291.73" style="fill:#1C5DE4"></polygon><polygon points="270.31 291.73 270.31 246.16 277.82 241.83 277.82 287.39 270.31 291.73" style="opacity:0.15"></polygon><polygon points="225.24 241.83 271.48 215.13 278.99 219.47 232.75 246.16 225.24 241.83" style="fill:#1C5DE4"></polygon><polygon points="250.92 235.68 243.41 231.34 250.92 227 258.43 231.34 250.92 235.68" style="opacity:0.25"></polygon><polygon points="270.31 246.16 224.07 219.47 231.58 215.13 277.82 241.83 270.31 246.16" style="fill:#1C5DE4"></polygon></g><path d="M273.18,217.76c-.74,3.15-5.32,12.3-19.91,13.29l-1.48-1.3s16.93-4.24,13.25-19.08Z" style="fill:#1C5DE4"></path><path d="M273.18,217.76c-.74,3.15-5.32,12.3-19.91,13.29l-1.48-1.3s16.93-4.24,13.25-19.08Z" style="opacity:0.4"></path><path d="M251.62,232.77s0-9,3.4-14.26,10-7.84,10-7.84a21,21,0,0,1,8.14,7.09,27.56,27.56,0,0,0-11.73,3c-5.71,3-8.18,10.32-8.18,10.32Z" style="fill:#1C5DE4"></path><path d="M251.62,232.77s0-9,3.4-14.26,10-7.84,10-7.84a21,21,0,0,1,8.14,7.09,27.56,27.56,0,0,0-11.73,3c-5.71,3-8.18,10.32-8.18,10.32Z" style="opacity:0.15"></path><path d="M261.6,220.66l-5.91-3.1a18.58,18.58,0,0,1,3.34-3.35l7.79,4.46A25.53,25.53,0,0,0,261.6,220.66Z" style="fill:#1C5DE4"></path><path d="M274.26,234.24s-10,2.62-22.64-1.47l1-1.72s6.6,1.11,11.26,0,8.64-7.74,8.64-7.74Z" style="fill:#1C5DE4"></path><path d="M274.26,234.24s-10,2.62-22.64-1.47l1-1.72s6.6,1.11,11.26,0,8.64-7.74,8.64-7.74Z" style="opacity:0.4"></path><path d="M251.62,232.77s.11-2.45,3.58-5.67c4.54-4.22,13.41-4.22,17.28-3.79a7.87,7.87,0,0,1,3,4.91c.47,2.4-1.21,6-1.21,6A14.56,14.56,0,0,0,263.89,229a14.26,14.26,0,0,0-10.16,3.1Z" style="fill:#1C5DE4"></path><path d="M251.62,232.77s.11-2.45,3.58-5.67c4.54-4.22,13.41-4.22,17.28-3.79a7.87,7.87,0,0,1,3,4.91c.47,2.4-1.21,6-1.21,6A14.56,14.56,0,0,0,263.89,229a14.26,14.26,0,0,0-10.16,3.1Z" style="opacity:0.15"></path><path d="M265.06,223.36a34.8,34.8,0,0,1,4.43-.22,8.52,8.52,0,0,1,2,8.58,14.78,14.78,0,0,0-4.63-2.16A9.94,9.94,0,0,0,265.06,223.36Z" style="fill:#1C5DE4"></path><path d="M264.69,245.86s-5.39-.66-8.78-4.56a18.89,18.89,0,0,1-4.29-8.53l1.65-1.72a13.07,13.07,0,0,0,6.44,6.67c3.83,1.69,11,1.67,11,1.67Z" style="fill:#1C5DE4"></path><path d="M264.69,245.86s-5.39-.66-8.78-4.56a18.89,18.89,0,0,1-4.29-8.53l1.65-1.72a13.07,13.07,0,0,0,6.44,6.67c3.83,1.69,11,1.67,11,1.67Z" style="opacity:0.4"></path><path d="M251.62,232.77l1.65-1.72s6.4-1.3,9.85,0,7.48,6.69,7.55,8.34a10.14,10.14,0,0,1-6,6.47s.33-5.89-4.11-9.35A17.94,17.94,0,0,0,251.62,232.77Z" style="fill:#1C5DE4"></path><path d="M251.62,232.77l1.65-1.72s6.4-1.3,9.85,0,7.48,6.69,7.55,8.34a10.14,10.14,0,0,1-6,6.47s.33-5.89-4.11-9.35A17.94,17.94,0,0,0,251.62,232.77Z" style="opacity:0.15"></path><path d="M258.29,235l5.62-3.56a13.64,13.64,0,0,1,3.39,2.69l-5.53,3.49a9.13,9.13,0,0,0-1.19-1.12A19,19,0,0,0,258.29,235Z" style="fill:#1C5DE4"></path><path d="M235.42,216.88c-.35,1.72.91,6.46,5.1,9.59s11.27,4.3,11.27,4.3l1-.61s-7-4.41-9.3-8.44-.6-10.5-.6-10.5Z" style="fill:#1C5DE4"></path><path d="M235.42,216.88c-.35,1.72.91,6.46,5.1,9.59s11.27,4.3,11.27,4.3l1-.61s-7-4.41-9.3-8.44-.6-10.5-.6-10.5Z" style="opacity:0.4"></path><path d="M251.79,230.77a20.33,20.33,0,0,0-7-9.91c-5.25-3.73-9.35-4-9.35-4a12.16,12.16,0,0,1,7.48-5.66s6,3.53,8.27,8.92a21.43,21.43,0,0,1,1.63,10Z" style="fill:#1C5DE4"></path><path d="M251.79,230.77a20.33,20.33,0,0,0-7-9.91c-5.25-3.73-9.35-4-9.35-4a12.16,12.16,0,0,1,7.48-5.66s6,3.53,8.27,8.92a21.43,21.43,0,0,1,1.63,10Z" style="opacity:0.15"></path><path d="M242.1,219.21a22.65,22.65,0,0,0-3.6-1.61,19,19,0,0,1,6.72-4.73,23.78,23.78,0,0,1,3.54,3.43A14.19,14.19,0,0,0,242.1,219.21Z" style="fill:#1C5DE4"></path><path d="M229.4,228.09c2.06,2.78,9.17,7.4,21.62,3.63l.77-1.46s-7.08.56-12.92-2.42-6.26-7-6.26-7Z" style="fill:#1C5DE4"></path><path d="M229.4,228.09c2.06,2.78,9.17,7.4,21.62,3.63l.77-1.46s-7.08.56-12.92-2.42-6.26-7-6.26-7Z" style="opacity:0.4"></path><path d="M251.79,230.26a18.24,18.24,0,0,0-8.61-8,19,19,0,0,0-10.57-1.42s-3.69,2.89-3.21,7.23a17.91,17.91,0,0,1,10.33-1.57c5.93.86,10.56,3.54,11.29,5.2Z" style="fill:#1C5DE4"></path><path d="M251.79,230.26a18.24,18.24,0,0,0-8.61-8,19,19,0,0,0-10.57-1.42s-3.69,2.89-3.21,7.23a17.91,17.91,0,0,1,10.33-1.57c5.93.86,10.56,3.54,11.29,5.2Z" style="opacity:0.15"></path><path d="M235.51,226.42a18.54,18.54,0,0,0-4.25.9,13,13,0,0,1,4.12-6.67,18.24,18.24,0,0,1,2.66.22A12.1,12.1,0,0,0,235.51,226.42Z" style="fill:#1C5DE4"></path><path d="M237.25,247.26c3.22.08,13.28-4.47,14.37-14.49l-1.08-2.4s-2.38,5.55-6.91,8.08-11.16,2.49-11.16,2.49Z" style="fill:#1C5DE4"></path><path d="M237.25,247.26c3.22.08,13.28-4.47,14.37-14.49l-1.08-2.4s-2.38,5.55-6.91,8.08-11.16,2.49-11.16,2.49Z" style="opacity:0.4"></path><path d="M251.79,230.26s-5.73-.14-9.68,1.46c-7,2.82-9.33,6.13-9.64,9.22a11.77,11.77,0,0,0,4.78,6.32s2.86-7.45,6.38-10.58c4.69-4.18,8-3.91,8-3.91Z" style="fill:#1C5DE4"></path><path d="M251.79,230.26s-5.73-.14-9.68,1.46c-7,2.82-9.33,6.13-9.64,9.22a11.77,11.77,0,0,0,4.78,6.32s2.86-7.45,6.38-10.58c4.69-4.18,8-3.91,8-3.91Z" style="opacity:0.15"></path><path d="M238.12,245.23a22.51,22.51,0,0,1-5.2-6.07,9.65,9.65,0,0,1,3.27-4.18,13.82,13.82,0,0,0,6,3.28A35.32,35.32,0,0,0,238.12,245.23Z" style="fill:#1C5DE4"></path></g></g><g id="freepik--character-1--inject-63"><g id="freepik--character--inject-63"><g id="freepik--bottom--inject-63"><path d="M67,384.76c-.44,2.53-1.29,5.46-2,10.63s.43,5.38-2.86,18.35c-2,7.79-1.58,10.88,3.22,17.39,5.14,7,10.44,5.51,13.84-2.3,2.92-6.67,2.72-9.76,2.68-16.65s0-8.9.28-14.36c.25-4.82-.18-8.11.09-11.8Z" style="fill:#37474f"></path><path d="M65.54,403.65c.9-6.69,1.07-13.6,1.38-18.12.7-10.11-1.5-30.07-.17-45.28l25.6-2.79c-.81,5.93-7.7,32.78-10.15,49,0,0-.84,22-2.18,31.65a1.85,1.85,0,0,1-2.59,1.45,16.94,16.94,0,0,0-11.61-.66,1.85,1.85,0,0,1-2.49-1.74C63.37,413.56,64.86,408.66,65.54,403.65Z" style="fill:#ffbda7"></path><path d="M137.7,336.84c.36,21.73,1,41,1.88,46.56s1.25,7.52,2.78,11.43,4.06,9.11,6.27,11.6c0,0,6.35,6.49,5,7.2s-14.34,2.36-20.19.73-6.58-6.56-8.75-15.53-4.16-22.1-4.16-22.1a6,6,0,0,0,.57-1.54c.71-2.61-1.39-11.45-2.53-17.27Z" style="fill:#ffbda7"></path><path d="M115,390.31c.43,2.1,2.29,4.44,3.16,7.7a58.48,58.48,0,0,1,1.94,11.36l.41,5.35,1.45-.11s-.51-6.78-.74-9.75-.1-5.17,1.3-5.6C122.53,399.26,122.05,389.77,115,390.31Z" style="fill:#263238"></path><path d="M120.72,375.51c-.89,2.51-4,6.07-5.29,8.47a9,9,0,0,0-1,4.11,4.25,4.25,0,0,0,1.35,3.16,48.78,48.78,0,0,1,4.63,4.91c1.83,2.35,5.28,7.85,6.29,11.77s1.62,7.37,5,9.25c2.67,1.47,13.52,3.36,19,3.59,7.48.32,9.34-3.31,6.48-6.12s-7.7-7.62-8.57-8.22a13.57,13.57,0,0,0-6.92,1.12c-4.14,1.89-5.43,4.34-9.87,2.25-4-1.9-5.75-9.22-5.64-19.81C126.32,378,120.72,375.51,120.72,375.51Z" style="fill:#37474f"></path><path d="M80.5,202.36a12.06,12.06,0,0,1-1.32,5c-3.43,7-11,17.11-11.16,31.56-.12,8.93.79,40.72,1.38,69.24-.28,3.09-2.72,10.55-3.28,28.17-.44,14,.21,35.87.21,35.87s10,5,18.81,1.76c3.61-13.37,9.73-45.53,13.32-60.82,3.78-16.13,6-31.62,6-31.62l5.38,23.56a81.42,81.42,0,0,0,0,18.25c1,9.38,10.13,43.52,10.13,43.52s11.14,3.54,18.72-1.63c0,0,.84-48.81,1-59.13s1-70.22-5.1-97.25a57.67,57.67,0,0,1-.33-6.28C126.83,208.64,90.29,209.07,80.5,202.36Z" style="fill:#37474f"></path><path d="M67.52,371.09c0-.13-.15-13.31,0-30.25a94.19,94.19,0,0,1,3.35-26,57.78,57.78,0,0,0,1.75-8.62c.61-6,.67-15.89.74-29.59,0-6.6.08-14.07.19-22.22.34-24.21,4.64-33.69,11.7-46.43l.8.44c-7,12.62-11.25,22-11.58,46-.11,8.15-.15,15.62-.19,22.21-.07,13.74-.12,23.66-.75,29.68a57.13,57.13,0,0,1-1.77,8.76,93.29,93.29,0,0,0-3.32,25.76c-.13,16.94,0,30.11,0,30.24Z" style="fill:#455a64"></path><path d="M125.85,365.36c-.45-2.47-1-5.46-1.66-8.74-2.29-12-5.15-26.84-5.72-34.52a99.63,99.63,0,0,1-.12-12.2,81.26,81.26,0,0,0,0-9.47c-.55-7.73-6.51-51.31-6.57-51.75l.91-.13c.06.44,6,44.05,6.58,51.82a80.79,80.79,0,0,1,0,9.57,98,98,0,0,0,.12,12.1c.56,7.62,3.41,22.47,5.71,34.41.63,3.27,1.2,6.27,1.66,8.75Z" style="fill:#455a64"></path><path d="M66.19,367.37c3.79,3.54,15.5,4.56,20.12,2.15l-1.48,7.28s-3,2-9.71,1.38-8.76-3.34-8.76-3.34Z" style="fill:#455a64"></path><path d="M118.93,362.23c4,1.36,15.77.83,20.13-1.8l-.26,6.26s-2.47,2.31-9.13,2.93-9.53-1.27-9.53-1.27Z" style="fill:#455a64"></path><path d="M104.5,281.55l6.42-38.27a21.85,21.85,0,0,0,17.57-8.2s.18,8.65-14.08,12.44l-7.23,33.15,2.7,24.44Z" style="fill:#263238"></path><path d="M134.52,208.37s-6,7.49-31.13,6c-16.88-1-22.71-5.3-24.21-7h0A14.21,14.21,0,0,0,80.37,203c0-.26.11-.48.13-.64,9.79,6.71,46.33,6.28,53.77.23,0,0,0,4,.25,5.78Z" style="fill:#263238"></path></g><g id="freepik--top--inject-63"><g id="freepik--Hair--inject-63"><path d="M112.35,126.72c.65-1.9,1.15-4,2.38-5.66s3-2.64,4.49-4L124,112.9c5.88-4.58,6.91-13.84,4.24-17.76-6.16-9-18.87-10.43-25.5-9.66-12.58,1.44-18.11,5.69-18.3,12.37-3.83.66-5.74,2.83-7.3,5.87a16.88,16.88,0,0,0-1.48,7.35c-.08,4,2.59,8.91-1.19,12.08-1.84,1.55-4,1.73-6.08,2.7a8.61,8.61,0,0,0-4,3.82c-.9,1.7-.71,3.47-.91,5.3a8,8,0,0,1-2.62,5.13c-1.31,1.18-2.74,1.92-3.79,3.39-2.77,3.85-2.87,6.6-2.31,10.32A13,13,0,0,0,57.68,160c3.75,4.52,9.63,7.11,15,9.15a29.72,29.72,0,0,0,9,1.81,32.87,32.87,0,0,0,11.14-1c3.49-1.11,7.93-2.86,10.27-5.84,2.13-2.7,2.23-7.18,2-10.44-.26-3.9-1.87-7.43-2.5-11.23a10.56,10.56,0,0,1,.21-4.44c.64-2.22,1.41-5,3.62-6S111.53,129.15,112.35,126.72Z" style="fill:#37474f"></path><path d="M109.49,101.89c0-6.11,6-12.94,14.25-9.85s8.84,14.09,6.91,19.23,4.87,7.9,5.67,13-4,9.14-1.37,11.78a2.47,2.47,0,0,0,4.26-2.38c1.86,1.31,1.61,4.15-.29,5.61a6.43,6.43,0,0,1-5.67,1c2.68.9,6.16,4.19,7,6.86a8,8,0,0,1-.74,6.36c-.76,1.51-1.7,3.23-1.4,5s1.61,3.15,1.87,5a9,9,0,0,1-1.84,6.58c-2.61,3.85-8.36,5.46-12.81,5.24-3-.15-5.24-1.94-7.45-3.75-2.92-2.39-5.86-2.93-9.58-2.74a30.11,30.11,0,0,1-6.08-.22c-3.49-.49-6.5-2.72-9.55-4.37a12.4,12.4,0,0,1-6-6.76c-2.78-7.85,6-12.46,10.89-16.44A61.24,61.24,0,0,0,106,133.3c3.85-4.66,2.8-11.76,3-17.37C109.09,111.25,109.26,106.57,109.49,101.89Z" style="fill:#263238"></path></g><path d="M117.48,145.38c5.83,1,8.27.84,13.67,4.67S159,195.12,159,195.12a15.17,15.17,0,0,1-10.9.71C141.7,194,132,187.94,132,187.94Z" style="fill:#f0997a"></path><path d="M77.59,147.23s8.17-2.16,13.56-3.24a57.49,57.49,0,0,1,16.54-.38,83.7,83.7,0,0,1,9.61,1.66A156.65,156.65,0,0,1,131,161c6.07,8.2,7.22,11.06,6.72,18a18.79,18.79,0,0,1-3.74,9.38c.24,5,.42,10.46.81,16-10.87,8-44.11,8.31-54.39-1.39.57-9.44.74-14.44-2.26-24.46C75,168.26,72.33,152.48,77.59,147.23Z" style="fill:#1C5DE4"></path><path d="M122.07,104.92c1.56,3.59,2.47,10.89,2.65,14.19.68,12.42-2.82,16.45-5.79,18.39-1.86,1.21-5.11,2-9.13,1.74l-.23,5.72s10.38,9.55.56,11.24c-12.75,2.19-19.82-11.51-19.82-11.51l.58-13.48c-1.28,1.16-3.55.88-5-.08-2.24-1.46-3.76-5-3.86-6.73a6,6,0,0,1,1-4,4.41,4.41,0,0,1,3.61-1.63,4.63,4.63,0,0,1,3.48,2.06c1.16,1.34,1.26,3.37,3.1,2.2,1.49-1,1.07-3,1.2-4.8a6.88,6.88,0,0,1,.53-2.2c.35-.76.82-1.44,1.1-2.23a15.11,15.11,0,0,0,.66-4.73c.1-3.2-.24-6.32,3.11-7.89a8.73,8.73,0,0,1,4.46-.69,46.38,46.38,0,0,1,5.28,1.42C113.74,95.21,119,97.85,122.07,104.92Z" style="fill:#ffbda7"></path><path d="M105.7,118.6c.29,1.38-1.29,2.87-3.52,3.32s-4.27-.28-4.55-1.66,1.29-2.86,3.52-3.32S105.42,117.23,105.7,118.6Z" style="fill:#f28f8f"></path><path d="M126.9,116.12c0,1.4-1.85,2.54-4.12,2.54s-4.13-1.14-4.13-2.54,1.85-2.55,4.13-2.55S126.9,114.71,126.9,116.12Z" style="fill:#f28f8f"></path><path d="M106.64,126.24l7.13,2.11a3.66,3.66,0,0,1-4.55,2.64A3.9,3.9,0,0,1,106.64,126.24Z" style="fill:#b16668"></path><path d="M106.7,128.51a3.05,3.05,0,0,1,1.38-.33,3.15,3.15,0,0,1,3.12,2.8,3.51,3.51,0,0,1-2,0A3.83,3.83,0,0,1,106.7,128.51Z" style="fill:#f28f8f"></path><path d="M106.89,115.87a1.85,1.85,0,1,1-2.08-1.59A1.86,1.86,0,0,1,106.89,115.87Z" style="fill:#263238"></path><path d="M120,113.65a1.85,1.85,0,1,1-2.07-1.59A1.85,1.85,0,0,1,120,113.65Z" style="fill:#263238"></path><path d="M121.46,110.23l-4.48-2a2.36,2.36,0,0,1,3.18-1.27A2.58,2.58,0,0,1,121.46,110.23Z" style="fill:#263238"></path><path d="M104.36,109.56l-3.73,3.21a2.36,2.36,0,0,1,.18-3.42A2.57,2.57,0,0,1,104.36,109.56Z" style="fill:#263238"></path><polygon points="110.94 112.4 113.09 125.55 119.67 121.99 110.94 112.4" style="fill:#f0997a"></polygon><path d="M109.8,139.24c-9.88-1-13.72-3.44-16.27-8.11,0,0,.87,6.08,5.45,8.16a34.51,34.51,0,0,0,10.72,2.52Z" style="fill:#f0997a"></path><path d="M77.59,147.23c-4,1.08-9.52,3.73-10.42,11.05-.6,5,.76,17.06,2.79,26.71,1.62,7.67,3.66,17,8.29,17.82s9.94-14.28,9.94-14.28S86,172.81,85,164.32C84.12,157.33,81.76,150.77,77.59,147.23Z" style="fill:#ffbda7"></path><path d="M85.23,166.55c-4.48,6.87-12.56,18.65-10.13,25.62-.59-5.86,6.6-15.32,10.53-22.52C85.49,168.57,85.36,167.53,85.23,166.55Z" style="fill:#f0997a"></path><path d="M106.54,143.83h0a11.26,11.26,0,0,0-3.15-4.09c-1.69-1.6-5.4-6.93-6-7.69s-1.35-3.62-2-5.51-1.15-3.1-3-2.52c0-.12-.07-.4-.17-1-.26-1.5-.78-2-1.47-2.15a2.23,2.23,0,0,0-1,0,2.82,2.82,0,0,0-.75-1.43c-.71-.68-1.38-.66-1.69-.31s-.23,1.32-.19,3.6a33,33,0,0,0,.27,5.11,3.64,3.64,0,0,0-.3,2.15c.19,1.24.57,6.6,1.65,8.65.64,1.21,4.61,6.78,5.62,8.86,1.24,2.29-.64,5.6-2.94,9.73-2.66,4.76-4.33,10-9.58,18.71A60.55,60.55,0,0,0,76.71,186a24.84,24.84,0,0,0-1.41,13.72c.81,4.62,6.44,3.84,11.62.87a22.34,22.34,0,0,0,10-10.4c2.74-5.35,4.63-15.06,6.29-21.88,2.34-9.66,3-12.61,3.35-14.55C107.16,150.06,107.67,146.7,106.54,143.83Z" style="fill:#ffbda7"></path><path d="M88.74,138.64c.75,1.2,1.64,2.45,2.46,3.66s1.65,2.44,2.44,3.68a13.67,13.67,0,0,1,1.06,2,4.53,4.53,0,0,1,.13,2.25,13.88,13.88,0,0,1-1.59,4.14c-.71,1.29-9.7,19.21-11.4,21.61,1.61-2.46,10.44-20.47,11.13-21.76a13.64,13.64,0,0,0,1.6-4,4.31,4.31,0,0,0-.12-2.11,13.18,13.18,0,0,0-1-1.93C91.93,143.59,89.29,139.77,88.74,138.64Z" style="fill:#f0997a"></path><path d="M92.38,124a1,1,0,0,0-.12.81c0,.28.13.56.2.84l.41,1.69c.27,1.12.5,2.25.73,3.38.11.55.19,1.16.33,1.67s.41,1.05.64,1.58L96,137.14a25.8,25.8,0,0,1-1.89-2.94,13.1,13.1,0,0,1-.76-1.6,5.89,5.89,0,0,1-.2-.86l-.18-.86c-.21-1.14-.42-2.28-.6-3.43-.09-.57-.16-1.14-.23-1.72a8.52,8.52,0,0,1-.08-.87A1,1,0,0,1,92.38,124Z" style="fill:#f0997a"></path><path d="M89.75,120.87c-.36.14-.37.53-.32.85s.12.68.18,1c.12.68.23,1.37.32,2.05.18,1.38.29,2.76.46,4.11a16,16,0,0,0,1.25,3.86c.53,1.26,1.14,2.51,1.69,3.78a35.77,35.77,0,0,1-2.08-3.6,12.77,12.77,0,0,1-1.44-4c-.2-1.38-.27-2.76-.36-4.14,0-.69-.08-1.37-.15-2.06,0-.35,0-.7,0-1a1.37,1.37,0,0,1,.08-.53A.61.61,0,0,1,89.75,120.87Z" style="fill:#f0997a"></path><path d="M87.44,127.7c.12.62.38,1.35.62,2.24s.56,1.85.92,3.22a22,22,0,0,0,.86,3,2.75,2.75,0,0,1-.67-1.36c-.3-.92-.4-1.26-.81-2.61s-.58-1.79-.74-2.52A7,7,0,0,1,87.44,127.7Z" style="fill:#f0997a"></path><path d="M103.16,168.31c1-4.06,1.9-8.11,2.79-12.18a60.68,60.68,0,0,0,1-6.15,12.84,12.84,0,0,0-.55-6.1l.14.06h0l-.1,0,0-.1a8.47,8.47,0,0,0-1.69-2.62c-.7-.78-1.53-1.44-2.23-2.26-1.39-1.61-2.64-3.32-3.89-5l-.94-1.29c-.15-.22-.3-.41-.46-.65a4.49,4.49,0,0,1-.36-.73c-.41-1-.71-2-1-3a29.16,29.16,0,0,0-1-3,2.27,2.27,0,0,0-.94-1.14,2,2,0,0,0-1.46,0l-.13,0,0-.14a8.69,8.69,0,0,0-.55-2.3,1.52,1.52,0,0,0-.82-.74,1.94,1.94,0,0,0-1.12,0l-.11,0,0-.11a2.62,2.62,0,0,0-.65-1.31,1.55,1.55,0,0,0-1.26-.57.61.61,0,0,0-.48.41,2.48,2.48,0,0,0-.1.73c0,.51,0,1,0,1.54l0,3.08a20.47,20.47,0,0,0,.23,3v.06a4.54,4.54,0,0,0-.23,2.65c.08.77.35,2.94.46,3.69a22.09,22.09,0,0,0,.75,3.72,21.12,21.12,0,0,1-.87-3.66c-.22-1.27-.34-2.71-.46-3.72a4.79,4.79,0,0,1,.21-2.75v0a20,20,0,0,1-.25-3.08L87,121.69c0-.51,0-1,0-1.54a2.79,2.79,0,0,1,.1-.8.83.83,0,0,1,.63-.54,1.69,1.69,0,0,1,1.45.63,2.89,2.89,0,0,1,.72,1.41l-.14-.09a2.25,2.25,0,0,1,1.26,0,1.72,1.72,0,0,1,.94.84,4.28,4.28,0,0,1,.38,1.18l.21,1.2-.16-.1a2.27,2.27,0,0,1,1.64,0,2.43,2.43,0,0,1,1.06,1.25,28.2,28.2,0,0,1,1,3c.32,1,.63,2,1,3a4.46,4.46,0,0,0,.35.69c.13.2.31.43.46.64l.92,1.29c1.24,1.71,2.49,3.43,3.85,5,.68.8,1.51,1.47,2.22,2.27a8.69,8.69,0,0,1,1.72,2.7l-.14-.07h0l.1,0,0,.09a13.14,13.14,0,0,1,.53,6.22,61.46,61.46,0,0,1-1.06,6.16C105.2,160.23,104.16,164.26,103.16,168.31Z" style="fill:#f0997a"></path><path d="M132.75,137.57s-.51-.33-.54-1.51.17-2,.16-3.29-.32-3.53-1.49-3.89-2.07,2.31-2.36,4.52a10,10,0,0,1-2.21,5.85c-1.75,2.33-3.35,5.4-2.15,8.37Z" style="fill:#f0997a"></path><path d="M141.2,134.08c-.41-2.24,0-5-.07-6.7a18.29,18.29,0,0,0-.93-5.06c-.52-1.79-.82-4.09-1.41-4.38s-1.7.28-1.8,1.65c0,0-.69-1.09-1.27-2.2s-.9-2.46-1.84-2.79-1.58,1.16-1.35,2.27.42,1.75.42,1.75-1,.33-.37,2.36a9.78,9.78,0,0,0,1.11,2.31,9.49,9.49,0,0,0,.73,3.55,18.55,18.55,0,0,0,.88,3.88,10.57,10.57,0,0,0-1.58,3.88c-.17,1.77.06,2.21-2.19,4.12-1.52,1.28-4,2.67-5.54,4.5s-2.59,3.82-1.2,6.55,2.5,4.71,3.79,7.56c1,2.15,1.86,5,5.77,15.1,3,7.87,3.69,10.29,5,13.19,1.88,4.21,3.74,5.79,8.16,8,6.41,3.21,14,3.19,13.6-2.44-.52-6.74-2.1-12-4.57-16-1.56-2.49-2.82-3.45-6-7.83-2.62-3.64-3.62-4.59-7.16-9.27s-5.82-9-5.67-10.48a33.19,33.19,0,0,1,2.46-7.63C141.3,137.31,141.72,137.45,141.2,134.08Z" style="fill:#ffbda7"></path><path d="M124.16,147.62a13.07,13.07,0,0,0,1.58,3.72c.6,1.22,1.21,2.44,1.78,3.68s1.14,2.46,1.68,3.71,1.08,3,1.59,4.31c-.63-1.21-1.23-3-1.82-4.2s-1.17-2.45-1.76-3.68l-1.74-3.69-.87-1.85A4.78,4.78,0,0,1,124.16,147.62Z" style="fill:#b16668"></path><path d="M137,119.59a12.38,12.38,0,0,0,.32,1.82c.16.59.34,1.18.53,1.74l0,.09,0,.12a6.84,6.84,0,0,0-.17,1,6.55,6.55,0,0,0,0,1,6.49,6.49,0,0,0,.38,1.94l.06.15-.07.11a4.34,4.34,0,0,0-.35.68c-.1.24-.19.48-.27.73a6.66,6.66,0,0,0-.19.77c0,.26-.07.53-.1.8a4.56,4.56,0,0,1-.08-1.65,4.75,4.75,0,0,1,.16-.82,5.82,5.82,0,0,1,.31-.81l0,.27a5.67,5.67,0,0,1-.53-2.14,5.76,5.76,0,0,1,.05-1.1,5.36,5.36,0,0,1,.25-1.09v.2a10.07,10.07,0,0,1-.34-1.87A6,6,0,0,1,137,119.59Z" style="fill:#f0997a"></path><path d="M133,118.62a6.15,6.15,0,0,0,.57.89,6.34,6.34,0,0,0,.71.75l.05,0v.11a8.2,8.2,0,0,0,.63,2.1,5.86,5.86,0,0,0,1.19,1.77l.16.16-.07.21a7,7,0,0,0-.26,1.18,8.79,8.79,0,0,0-.07,1.26c0,.42,0,.84.07,1.27s.13.85.2,1.28a7.58,7.58,0,0,1-.49-1.22,6.43,6.43,0,0,1-.29-1.3,6.65,6.65,0,0,1,0-1.34,5.17,5.17,0,0,1,.23-1.37l.09.37a5,5,0,0,1-.78-.94,5.75,5.75,0,0,1-.56-1.07,7.91,7.91,0,0,1-.33-1.15,6.76,6.76,0,0,1-.12-1.19l.06.14a4.35,4.35,0,0,1-.6-.93A4,4,0,0,1,133,118.62Z" style="fill:#f0997a"></path><path d="M135.56,133.14a5.17,5.17,0,0,1-.83,2.21,7.62,7.62,0,0,1-1.6,1.75c.2-.35.43-.66.65-1s.45-.63.65-1A15.86,15.86,0,0,0,135.56,133.14Z" style="fill:#f0997a"></path><path d="M127.88,141.31a9.81,9.81,0,0,0-.93,4.08,7.59,7.59,0,0,0,.3,2.05,17.12,17.12,0,0,0,.76,2,5.77,5.77,0,0,1-1.77-4A5.73,5.73,0,0,1,127.88,141.31Z" style="fill:#f0997a"></path></g></g><path id="freepik--Heart--inject-63" d="M139.65,94.78l2.22,2.8,3.47-.83c2.57-.62,9.41-2.26,11.33-7.8a5.61,5.61,0,0,0-10.32-4.34,5.61,5.61,0,0,0-10.79-3C133.65,87.19,138,92.7,139.65,94.78Z" style="fill:#1C5DE4"></path></g></svg>